<mxfile host="Electron" modified="2024-01-28T01:16:48.329Z" agent="Mozilla/5.0 (Windows NT 10.0; Win64; x64) AppleWebKit/537.36 (KHTML, like Gecko) draw.io/22.0.3 Chrome/114.0.5735.289 Electron/25.8.4 Safari/537.36" etag="tRSoZZsBzWA1RATThQX_" version="22.0.3" type="device">
  <diagram name="Page-1" id="v083JaoKay88UOmM27cz">
    <mxGraphModel dx="2386" dy="1929" grid="1" gridSize="10" guides="1" tooltips="1" connect="1" arrows="1" fold="1" page="1" pageScale="1" pageWidth="1700" pageHeight="1100" math="0" shadow="0">
      <root>
        <mxCell id="0" />
        <mxCell id="1" parent="0" />
        <mxCell id="v9vu7zyCsT8Zl7CwTNYv-19" value="" style="rounded=1;whiteSpace=wrap;html=1;" vertex="1" parent="1">
          <mxGeometry x="645" y="365" width="620" height="360" as="geometry" />
        </mxCell>
        <mxCell id="v9vu7zyCsT8Zl7CwTNYv-1" value="Consumer System" style="ellipse;shape=cloud;whiteSpace=wrap;html=1;" vertex="1" parent="1">
          <mxGeometry x="160" y="460" width="240" height="180" as="geometry" />
        </mxCell>
        <mxCell id="v9vu7zyCsT8Zl7CwTNYv-25" style="edgeStyle=orthogonalEdgeStyle;rounded=0;orthogonalLoop=1;jettySize=auto;html=1;entryX=0;entryY=0.5;entryDx=0;entryDy=0;" edge="1" parent="1" source="v9vu7zyCsT8Zl7CwTNYv-2" target="v9vu7zyCsT8Zl7CwTNYv-3">
          <mxGeometry relative="1" as="geometry" />
        </mxCell>
        <mxCell id="v9vu7zyCsT8Zl7CwTNYv-2" value="RESTFulSense Client" style="rounded=1;whiteSpace=wrap;html=1;" vertex="1" parent="1">
          <mxGeometry x="440" y="525" width="150" height="50" as="geometry" />
        </mxCell>
        <mxCell id="v9vu7zyCsT8Zl7CwTNYv-16" style="edgeStyle=orthogonalEdgeStyle;rounded=0;orthogonalLoop=1;jettySize=auto;html=1;entryX=0;entryY=0.5;entryDx=0;entryDy=0;" edge="1" parent="1" source="v9vu7zyCsT8Zl7CwTNYv-3" target="v9vu7zyCsT8Zl7CwTNYv-4">
          <mxGeometry relative="1" as="geometry" />
        </mxCell>
        <mxCell id="v9vu7zyCsT8Zl7CwTNYv-17" style="edgeStyle=orthogonalEdgeStyle;rounded=0;orthogonalLoop=1;jettySize=auto;html=1;entryX=0;entryY=0.5;entryDx=0;entryDy=0;" edge="1" parent="1" source="v9vu7zyCsT8Zl7CwTNYv-3" target="v9vu7zyCsT8Zl7CwTNYv-5">
          <mxGeometry relative="1" as="geometry" />
        </mxCell>
        <mxCell id="v9vu7zyCsT8Zl7CwTNYv-18" style="edgeStyle=orthogonalEdgeStyle;rounded=0;orthogonalLoop=1;jettySize=auto;html=1;entryX=0;entryY=0.5;entryDx=0;entryDy=0;" edge="1" parent="1" source="v9vu7zyCsT8Zl7CwTNYv-3" target="v9vu7zyCsT8Zl7CwTNYv-6">
          <mxGeometry relative="1" as="geometry" />
        </mxCell>
        <mxCell id="v9vu7zyCsT8Zl7CwTNYv-3" value="Http Orchestration Service" style="rounded=1;whiteSpace=wrap;html=1;" vertex="1" parent="1">
          <mxGeometry x="680" y="525" width="150" height="50" as="geometry" />
        </mxCell>
        <mxCell id="v9vu7zyCsT8Zl7CwTNYv-10" style="edgeStyle=orthogonalEdgeStyle;rounded=0;orthogonalLoop=1;jettySize=auto;html=1;entryX=0;entryY=0.5;entryDx=0;entryDy=0;" edge="1" parent="1" source="v9vu7zyCsT8Zl7CwTNYv-4" target="v9vu7zyCsT8Zl7CwTNYv-7">
          <mxGeometry relative="1" as="geometry" />
        </mxCell>
        <mxCell id="v9vu7zyCsT8Zl7CwTNYv-4" value="Http Service" style="rounded=1;whiteSpace=wrap;html=1;" vertex="1" parent="1">
          <mxGeometry x="880" y="455" width="150" height="50" as="geometry" />
        </mxCell>
        <mxCell id="v9vu7zyCsT8Zl7CwTNYv-11" style="edgeStyle=orthogonalEdgeStyle;rounded=0;orthogonalLoop=1;jettySize=auto;html=1;" edge="1" parent="1" source="v9vu7zyCsT8Zl7CwTNYv-5" target="v9vu7zyCsT8Zl7CwTNYv-8">
          <mxGeometry relative="1" as="geometry" />
        </mxCell>
        <mxCell id="v9vu7zyCsT8Zl7CwTNYv-5" value="Serialization Service" style="rounded=1;whiteSpace=wrap;html=1;" vertex="1" parent="1">
          <mxGeometry x="880" y="595" width="150" height="50" as="geometry" />
        </mxCell>
        <mxCell id="v9vu7zyCsT8Zl7CwTNYv-6" value="Error Mapper Service" style="rounded=1;whiteSpace=wrap;html=1;fillColor=#a20025;fontColor=#ffffff;strokeColor=#6F0000;" vertex="1" parent="1">
          <mxGeometry x="880" y="525" width="150" height="50" as="geometry" />
        </mxCell>
        <mxCell id="v9vu7zyCsT8Zl7CwTNYv-7" value="IHttp Broker" style="rounded=1;whiteSpace=wrap;html=1;" vertex="1" parent="1">
          <mxGeometry x="1100" y="455" width="150" height="50" as="geometry" />
        </mxCell>
        <mxCell id="v9vu7zyCsT8Zl7CwTNYv-8" value="ISerialization Broker" style="rounded=1;whiteSpace=wrap;html=1;" vertex="1" parent="1">
          <mxGeometry x="1100" y="595" width="150" height="50" as="geometry" />
        </mxCell>
        <mxCell id="v9vu7zyCsT8Zl7CwTNYv-9" value="Provider System" style="ellipse;shape=cloud;whiteSpace=wrap;html=1;" vertex="1" parent="1">
          <mxGeometry x="1330" y="455" width="240" height="180" as="geometry" />
        </mxCell>
        <mxCell id="v9vu7zyCsT8Zl7CwTNYv-12" value="Program/Startup.cs" style="rounded=1;whiteSpace=wrap;html=1;" vertex="1" parent="1">
          <mxGeometry x="360" y="660" width="130" height="50" as="geometry" />
        </mxCell>
        <mxCell id="v9vu7zyCsT8Zl7CwTNYv-21" style="edgeStyle=orthogonalEdgeStyle;rounded=0;orthogonalLoop=1;jettySize=auto;html=1;entryX=0.12;entryY=0.556;entryDx=0;entryDy=0;entryPerimeter=0;" edge="1" parent="1" source="v9vu7zyCsT8Zl7CwTNYv-7" target="v9vu7zyCsT8Zl7CwTNYv-9">
          <mxGeometry relative="1" as="geometry" />
        </mxCell>
        <mxCell id="v9vu7zyCsT8Zl7CwTNYv-22" style="edgeStyle=orthogonalEdgeStyle;rounded=0;orthogonalLoop=1;jettySize=auto;html=1;entryX=-0.028;entryY=0.497;entryDx=0;entryDy=0;entryPerimeter=0;" edge="1" parent="1" source="v9vu7zyCsT8Zl7CwTNYv-1" target="v9vu7zyCsT8Zl7CwTNYv-2">
          <mxGeometry relative="1" as="geometry" />
        </mxCell>
        <mxCell id="v9vu7zyCsT8Zl7CwTNYv-26" value="STX-REST-RESTfulSense" style="text;html=1;strokeColor=none;fillColor=none;align=center;verticalAlign=middle;whiteSpace=wrap;rounded=0;fontSize=16;" vertex="1" parent="1">
          <mxGeometry x="850" y="335" width="205" height="30" as="geometry" />
        </mxCell>
      </root>
    </mxGraphModel>
  </diagram>
</mxfile>
